# xmcd CD database file
#
# Track frame offsets:
#	150
#	10818
#	28026
#	43064
#	59511
#	73237
#	84579
#	101953
#	112786
#	128311
#	145422
#
# Disc length: 2171 seconds
#
# Revision: 0
# Processed by: cddbd v1.4PL0 Copyright (c) Steve Scherf et al.
# Submitted via: CDex 1.51
#
DISCID=9508790b
DTITLE=Ross Parsons - Oklahoma Rain
DYEAR=1998
DGENRE=Country
TTITLE0=SouthBound
TTITLE1=Angels
TTITLE2=ThemBulls
TTITLE3=Key to Her Heart
TTITLE4=Lifes Highway
TTITLE5=Oklahoma Rain
TTITLE6=Eyes Dont Lie
TTITLE7=After All (with Spring Street)
TTITLE8=Suckin the Breath Outta Life
TTITLE9=Southern
TTITLE10=One Serious Clown
EXTD=YEAR: 1998
EXTT0=
EXTT1=
EXTT2=
EXTT3=
EXTT4=
EXTT5=
EXTT6=
EXTT7=
EXTT8=
EXTT9=
EXTT10=
PLAYORDER=
